<svg width="44" height="44" viewBox="0 0 44 44" fill="none" xmlns="http://www.w3.org/2000/svg">
<g id="Frame" clip-path="url(#clip0_12_2214)">
<g id="Group">
<path id="Vector" d="M10.0546 22.0047C10.0546 16.2969 14.0788 11.5123 19.4388 10.3367C15.246 10.8705 10.8617 12.6883 6.61368 15.675C2.78448 18.3674 0.419905 21.0363 0.321163 21.1486C0.114173 21.384 0 21.6866 0 22C0 22.3134 0.114173 22.6161 0.321163 22.8514C0.419905 22.9637 2.78448 25.6326 6.61376 28.3249C10.8272 31.2875 15.1746 33.0999 19.3363 33.6502C14.0275 32.4365 10.0546 27.6759 10.0546 22.0047Z" fill="#1545B3"/>
<path id="Vector_2" d="M12.6328 22.0046C12.6328 27.1697 16.8349 31.3718 22 31.3718C27.1651 31.3718 31.3672 27.1697 31.3672 22.0046C31.3672 16.8395 27.1651 12.6375 22 12.6375C16.8349 12.6375 12.6328 16.8395 12.6328 22.0046ZM23.7188 18.1328H27.1562C27.8682 18.1328 28.4453 18.71 28.4453 19.4219V22.8594C28.4453 23.5713 27.8682 24.1484 27.1562 24.1484C26.4443 24.1484 25.8672 23.5713 25.8672 22.8594V22.5339L22.9115 25.4897C22.408 25.993 21.592 25.9931 21.0885 25.4897L19.4196 23.8209L17.7751 25.4655C17.2717 25.9688 16.4555 25.969 15.9521 25.4655C15.4486 24.9622 15.4486 24.146 15.9521 23.6425L18.5081 21.0864C19.0114 20.583 19.8282 20.5833 20.3311 21.0864L22 22.7551L24.0442 20.7109H23.7188C23.0068 20.7109 22.4297 20.1338 22.4297 19.4219C22.4297 18.71 23.0068 18.1328 23.7188 18.1328Z" fill="#1545B3"/>
<path id="Vector_3" d="M43.6791 21.1486C43.5803 21.0363 41.2158 18.3674 37.3865 15.6751C33.1385 12.6882 28.7542 10.8706 24.5613 10.3367C29.9214 11.5123 33.9455 16.2969 33.9455 22.0046C33.9455 27.6759 29.9727 32.4365 24.664 33.6502C28.8256 33.0999 33.1731 31.2874 37.3865 28.3249C41.2158 25.6326 43.5803 22.9636 43.6791 22.8514C43.8861 22.6161 44.0003 22.3134 44.0003 22C44.0003 21.6866 43.8861 21.3839 43.6791 21.1486ZM32.14 34.4064C31.784 33.7898 30.9957 33.5784 30.3791 33.9346C29.7625 34.2905 29.5513 35.0788 29.9073 35.6954L31.2394 38.0026C31.5964 38.6211 32.3855 38.8294 33.0002 38.4744C33.6168 38.1184 33.8281 37.3301 33.472 36.7135L32.14 34.4064ZM22.0002 7.73438C22.7121 7.73438 23.2893 7.15722 23.2893 6.44531V3.86719C23.2893 3.15528 22.7121 2.57812 22.0002 2.57812C21.2883 2.57812 20.7112 3.15528 20.7112 3.86719V6.44531C20.7112 7.15722 21.2883 7.73438 22.0002 7.73438ZM30.4221 9.99101C31.036 10.3455 31.8255 10.1386 32.183 9.51921L33.472 7.28655C33.8281 6.67004 33.6168 5.88156 33.0002 5.5257C32.3837 5.16957 31.5952 5.3808 31.2394 5.99749L29.9503 8.23015C29.5943 8.84666 29.8055 9.63506 30.4221 9.99101ZM22.0002 36.1797C21.2883 36.1797 20.7112 36.7568 20.7112 37.4688V40.1328C20.7112 40.8447 21.2883 41.4219 22.0002 41.4219C22.7121 41.4219 23.2893 40.8447 23.2893 40.1328V37.4688C23.2893 36.7568 22.7121 36.1797 22.0002 36.1797ZM11.8175 9.51921C12.1746 10.1377 12.9636 10.346 13.5784 9.99101C14.195 9.63506 14.4062 8.84666 14.0502 8.23015L12.7611 5.99749C12.4051 5.3808 11.6168 5.16966 11.0002 5.5257C10.3836 5.88165 10.1724 6.67004 10.5284 7.28655L11.8175 9.51921ZM13.6213 33.9346C13.0048 33.5784 12.2163 33.7899 11.8605 34.4064L10.5284 36.7135C10.1724 37.3301 10.3836 38.1185 11.0002 38.4744C11.6143 38.8291 12.4037 38.6216 12.7611 38.0026L14.0931 35.6954C14.4492 35.0789 14.2379 34.2905 13.6213 33.9346Z" fill="#1545B3"/>
</g>
</g>
<defs>
<clipPath id="clip0_12_2214">
<rect width="44" height="44" fill="white"/>
</clipPath>
</defs>
</svg>
