<svg width="44" height="44" viewBox="0 0 44 44" fill="none" xmlns="http://www.w3.org/2000/svg">
<g id="Frame">
<g id="Group">
<path id="Vector" fill-rule="evenodd" clip-rule="evenodd" d="M6.17482 31.8355L9.04668 23.9208L15.6951 21.6208C16.3087 21.4087 16.7484 21.5376 16.9429 21.983L17.0209 22.2417C17.094 22.6633 16.9384 23.1706 16.2663 23.4203L12.1701 24.9465C12.1101 24.9689 12.0559 25.0044 12.0114 25.0505C11.967 25.0965 11.9333 25.1518 11.913 25.2125L10.3296 29.8027C10.2117 30.1507 10.561 30.4762 10.9003 30.3363C12.2321 29.7865 13.3377 30.4434 14.2957 31.1362C15.4929 32.0016 16.1194 33.7332 16.0423 35.9244H14.2545C14.339 34.0929 13.6736 33.2692 13.073 32.8985C11.8002 32.1148 9.69061 32.6269 6.97232 34.3799C6.90047 34.426 6.84415 34.4926 6.81067 34.5711L4.73107 39.3702H2.9788L6.17482 31.8355ZM2.16309 40.2301H13.0103V42.1953H2.16309V40.2301ZM13.8697 36.7838V42.1953H24.7158V36.7838H13.8697ZM34.0933 5.70926V1.80469H41.8372L40.3118 3.33008C40.0761 3.56572 40.0767 3.94883 40.3118 4.18387L41.8372 5.70926H34.0933ZM36.4223 42.1953H25.5751V31.5579H36.4224V42.1953H36.4223ZM34.6358 10.6786C34.4535 10.1689 34.0796 9.82532 33.8916 9.72993L33.426 10.2417V1.80469H32.5667V11.1862L28.0973 16.0986C28.0042 16.2021 25.9415 17.5471 25.6361 17.7546C25.5362 17.8225 18.9926 20.3898 18.2844 20.6697C17.8633 20.8362 17.6964 21.3108 17.7659 21.7259L17.8435 21.9785C18.0585 22.451 18.5775 22.5751 19.2821 22.3144L24.5966 20.3475C24.8823 20.2411 25.1852 20.4597 25.1746 20.7651L25.069 23.93C25.0668 23.9994 25.0477 24.0673 25.0133 24.1276L18.3188 35.9245H20.1964L25.0913 27.7207C25.0982 27.7098 25.1054 27.6993 25.1119 27.6891C26.0254 26.4248 28.3924 26.3141 29.5173 26.4325C29.6228 26.4438 29.7203 26.4936 29.7912 26.5725C29.8621 26.6514 29.9013 26.7537 29.9013 26.8598V30.6985H31.8297V25.287C31.8297 25.0382 31.5792 24.5437 31.1757 24.2201C30.8057 23.9235 30.2934 23.7858 30.0181 23.7858H29.5929C29.4789 23.7858 29.3696 23.7405 29.289 23.6599C29.2085 23.5793 29.1632 23.4701 29.1632 23.3561V17.9963C29.1633 17.8891 29.2034 17.7858 29.2756 17.7066L32.5667 14.0992V30.6985H33.426V13.1574L34.3201 12.1774C34.7259 11.7332 34.8314 11.2288 34.6358 10.6786ZM24.8859 14.9774C23.3253 14.9774 22.0553 13.7069 22.0553 12.1467C22.0553 10.5849 23.3253 9.31485 24.8859 9.31485C26.4465 9.31485 27.7166 10.5848 27.7166 12.1467C27.7166 13.7069 26.4465 14.9774 24.8859 14.9774ZM12.7533 21.04C14.314 21.04 15.584 19.77 15.584 18.2093C15.584 16.6487 14.314 15.3787 12.7533 15.3787C11.1919 15.3787 9.92264 16.6487 9.92264 18.2093C9.92264 19.77 11.1919 21.04 12.7533 21.04Z" fill="#1545B3"/>
</g>
</g>
</svg>
