<svg width="201" height="75" viewBox="0 0 201 75" fill="none" xmlns="http://www.w3.org/2000/svg">
<g id="logo 3">
<path id="Vector" d="M0.0742188 42.2544C4.15588 41.6162 8.23915 40.9795 12.3192 40.3412C10.804 46.2259 9.29091 52.1113 7.77619 57.9955C7.48791 59.1117 7.20174 60.2301 6.91345 61.3457C5.74491 65.8897 4.57372 70.4357 3.40465 74.9797C5.39823 71.2328 7.39393 67.4859 9.38698 63.7417C9.84778 62.874 10.3081 62.0085 10.7684 61.1434C11.3832 59.9922 11.9954 58.8409 12.6069 57.6923C13.2807 56.4248 13.9555 55.1566 14.6308 53.8891C18.1216 47.3321 21.6097 40.7761 25.1004 34.2191L14.4232 32.61C17.2944 21.7406 20.1656 10.8716 23.0336 0C15.3821 14.0848 7.72841 28.1696 0.0742188 42.2544Z" fill="url(#paint0_linear_21_29209)"/>
<path id="Vector_2" d="M39.7028 19.1208C48.1417 22.7052 54.3767 30.319 55.4969 39.5837C57.2271 53.8804 46.009 66.8973 30.9278 68.0693C23.9569 68.6104 17.3948 66.5798 12.2704 62.8175L10.8768 65.2448C16.7779 69.5031 24.3541 71.7095 32.3624 70.8524C48.4448 69.1324 60.2475 55.4034 58.864 40.0669C57.8999 29.3813 50.8429 20.5546 41.1978 16.4583L39.7028 19.1208ZM2.21546 52.1823C1.69463 52.4037 1.38086 52.8917 1.38086 53.402C1.38086 53.5772 1.41643 53.753 1.49448 53.9235C2.53401 56.1925 3.87509 58.3017 5.46624 60.2076L6.43781 56.9216C5.52146 55.6466 4.72774 54.2845 4.06463 52.8535C3.8358 52.3574 3.32454 52.0649 2.78884 52.0649C2.59719 52.0649 2.40181 52.1025 2.21546 52.1823Z" fill="url(#paint1_linear_21_29209)"/>
<path id="Vector_3" d="M43.7325 16.8406C44.1142 18.3249 43.1585 19.8223 41.5976 20.185C40.0378 20.5482 38.4631 19.6396 38.0809 18.1554C37.6996 16.6713 38.6554 15.1738 40.2157 14.8106C41.776 14.4479 43.3507 15.3564 43.7325 16.8406Z" fill="#113381"/>
<path id="Vector_4" d="M43.7325 16.8406C44.1142 18.3249 43.1585 19.8223 41.5976 20.185C40.0378 20.5482 38.4631 19.6396 38.0809 18.1554C37.6996 16.6713 38.6554 15.1738 40.2157 14.8106C41.776 14.4479 43.3507 15.3564 43.7325 16.8406Z" stroke="#113381" stroke-width="0.352387" stroke-miterlimit="10"/>
<path id="Vector_5" d="M25.3881 23.3863C25.3728 23.4048 25.3627 23.4171 25.3467 23.4356L25.42 24.6878C25.3435 24.6963 25.2644 24.7048 25.1885 24.7111L25.2831 26.3408C25.3027 26.3573 25.3133 26.3658 25.3334 26.3828C26.3416 26.2745 27.3547 26.2649 28.3586 26.3562C32.3601 26.7168 36.2028 28.6312 38.8336 31.923C43.9282 38.2979 42.5553 47.552 35.8222 52.1783C33.329 53.8887 30.4652 54.7425 27.6085 54.7983C26.8805 54.8126 26.295 55.4037 26.2604 56.1307C26.2227 56.9229 26.8402 57.5878 27.6329 57.5984C29.3668 57.6202 31.2547 57.3961 33.243 56.7817C35.0932 56.2092 36.8776 55.3325 38.515 54.1302C46.1007 48.5705 47.626 38.0318 41.95 30.4918C38.7226 26.2017 33.8413 23.7341 28.7775 23.3406C28.2965 23.3029 27.8139 23.2843 27.3308 23.2843C26.6835 23.2843 26.0348 23.3183 25.3881 23.3863Z" fill="url(#paint2_linear_21_29209)"/>
<path id="Vector_6" d="M29.0176 24.3512C29.1036 25.9553 27.873 27.3265 26.2685 27.4125C24.6647 27.4986 23.2943 26.2671 23.2083 24.6629C23.1224 23.0582 24.353 21.6875 25.9569 21.6015C27.5613 21.5155 28.9316 22.7464 29.0176 24.3512Z" fill="#113381"/>
<path id="Vector_7" d="M29.0176 24.3512C29.1036 25.9553 27.873 27.3265 26.2685 27.4125C24.6647 27.4986 23.2943 26.2671 23.2083 24.6629C23.1224 23.0582 24.353 21.6875 25.9569 21.6015C27.5613 21.5155 28.9316 22.7464 29.0176 24.3512Z" stroke="#113381" stroke-width="0.360723" stroke-miterlimit="10"/>
<path id="Vector_8" d="M48.0831 37.9458C48.1718 38.3886 48.2471 38.8358 48.3034 39.2919C48.3135 39.3647 48.3236 39.4385 48.3311 39.5117C49.5707 50.239 41.4759 60.015 30.6065 60.9029C27.369 61.1684 24.7102 60.5365 23.6913 60.2376C20.939 59.4283 18.268 57.4492 16.1025 55.3872L14.0786 59.089C16.54 61.2496 19.7302 63.2256 23.7291 64.1968C27.6318 65.1436 30.7158 64.7204 31.535 64.6296C44.003 63.2309 53.1523 52.0348 52.0793 39.5346C52.0772 39.4943 52.0719 39.4534 52.0671 39.413C51.9986 38.6388 51.893 37.8826 51.7507 37.136L48.0831 37.9458Z" fill="url(#paint3_linear_21_29209)"/>
<path id="Vector_9" d="M52.5494 36.4444C52.9311 38.0051 51.9754 39.5801 50.4145 39.9619C48.8547 40.3437 47.28 39.3879 46.8978 37.8272C46.5165 36.266 47.4722 34.6909 49.0325 34.3091C50.5929 33.9279 52.1676 34.8837 52.5494 36.4444Z" fill="#113381"/>
<path id="Vector_10" d="M52.5494 36.4444C52.9311 38.0051 51.9754 39.5801 50.4145 39.9619C48.8547 40.3437 47.28 39.3879 46.8978 37.8272C46.5165 36.266 47.4722 34.6909 49.0325 34.3091C50.5929 33.9279 52.1676 34.8837 52.5494 36.4444Z" stroke="#113381" stroke-width="0.360723" stroke-miterlimit="10"/>
<path id="Vector_11" d="M76.319 36.8056H71.811V34.1479H84.0869V36.8056H79.5793V48.2416H76.319V36.8056ZM96.7495 45.6242V48.2416H85.8411V34.1479H96.488V36.7653H89.0814V39.8257H95.6225V42.3625H89.0814V45.6242H96.7495ZM106.046 48.4832C104.61 48.4832 103.309 48.1745 102.142 47.557C100.988 46.9262 100.076 46.0604 99.4048 44.9598C98.7469 43.8457 98.4184 42.5907 98.4184 41.1948C98.4184 39.7988 98.7469 38.5505 99.4048 37.4499C100.076 36.3358 100.988 35.47 102.142 34.8526C103.309 34.2218 104.617 33.9064 106.066 33.9064C107.287 33.9064 108.387 34.1211 109.367 34.5506C110.359 34.9801 111.191 35.5976 111.862 36.4029L109.769 38.3358C108.816 37.2351 107.635 36.6848 106.227 36.6848C105.355 36.6848 104.577 36.8794 103.893 37.2687C103.209 37.6445 102.672 38.1747 102.283 38.8593C101.907 39.5438 101.719 40.3223 101.719 41.1948C101.719 42.0672 101.907 42.8457 102.283 43.5303C102.672 44.2148 103.209 44.7517 103.893 45.141C104.577 45.5168 105.355 45.7047 106.227 45.7047C107.635 45.7047 108.816 45.1477 109.769 44.0336L111.862 45.9665C111.191 46.7853 110.359 47.4094 109.367 47.8389C108.374 48.2685 107.266 48.4832 106.046 48.4832ZM126.984 34.1479V48.2416H123.724V42.4632H117.324V48.2416H114.064V34.1479H117.324V39.7049H123.724V34.1479H126.984Z" fill="#113381"/>
<path id="Vector_12" d="M138.003 48.4832C136.568 48.4832 135.266 48.1745 134.099 47.557C132.945 46.9262 132.033 46.0604 131.362 44.9598C130.704 43.8457 130.376 42.5907 130.376 41.1948C130.376 39.7988 130.704 38.5505 131.362 37.4499C132.033 36.3358 132.945 35.47 134.099 34.8526C135.266 34.2218 136.574 33.9064 138.023 33.9064C139.245 33.9064 140.344 34.1211 141.324 34.5506C142.317 34.9801 143.149 35.5976 143.82 36.4029L141.726 38.3358C140.774 37.2351 139.593 36.6848 138.185 36.6848C137.313 36.6848 136.534 36.8794 135.85 37.2687C135.165 37.6445 134.629 38.1747 134.24 38.8593C133.865 39.5438 133.677 40.3223 133.677 41.1948C133.677 42.0672 133.865 42.8457 134.24 43.5303C134.629 44.2148 135.165 44.7517 135.85 45.141C136.534 45.5168 137.313 45.7047 138.185 45.7047C139.593 45.7047 140.774 45.1477 141.726 44.0336L143.82 45.9665C143.149 46.7853 142.317 47.4094 141.324 47.8389C140.331 48.2685 139.224 48.4832 138.003 48.4832ZM154.997 48.2416L152.28 44.3155H152.119H149.282V48.2416H146.022V34.1479H152.119C153.367 34.1479 154.447 34.356 155.359 34.7721C156.285 35.1882 156.996 35.7788 157.493 36.5439C157.989 37.3089 158.237 38.215 158.237 39.2619C158.237 40.3089 157.982 41.2149 157.472 41.98C156.976 42.7316 156.265 43.3088 155.339 43.7115L158.499 48.2416H154.997ZM154.937 39.2619C154.937 38.47 154.682 37.866 154.172 37.4499C153.662 37.0204 152.918 36.8056 151.938 36.8056H149.282V41.7182H151.938C152.918 41.7182 153.662 41.5035 154.172 41.0739C154.682 40.6445 154.937 40.0404 154.937 39.2619ZM170.098 45.2215H163.557L162.309 48.2416H158.969L165.247 34.1479H168.468L174.766 48.2416H171.346L170.098 45.2215ZM169.071 42.745L166.838 37.3492L164.604 42.745H169.071ZM179.489 36.7653V40.4901H186.009V43.1074H179.489V48.2416H176.229V34.1479H186.875V36.7653H179.489ZM192.098 36.8056H187.59V34.1479H199.867V36.8056H195.359V48.2416H192.098V36.8056Z" fill="#113381"/>
<path id="Vector_13" d="M85.2769 60.9937H84.0473V54.525H81.8354V53.47H87.4887V54.525H85.2769V60.9937ZM91.0021 61.0967C90.1175 61.0967 89.4241 60.8393 88.9235 60.3247C88.4262 59.8067 88.178 59.0948 88.178 58.1891C88.178 57.2593 88.4097 56.5285 88.8722 55.9968C89.3356 55.4651 89.9711 55.1992 90.7812 55.1992C91.5317 55.1992 92.1249 55.4273 92.5602 55.8836C92.9963 56.3399 93.2139 56.9677 93.2139 57.767V58.4206H89.4225C89.4398 58.973 89.5888 59.3984 89.8701 59.6968C90.1515 59.992 90.5478 60.1395 91.0584 60.1395C91.3943 60.1395 91.7063 60.1086 91.995 60.0468C92.2863 59.9816 92.5982 59.8753 92.9309 59.7277V60.7107C92.6363 60.8513 92.3376 60.9508 92.0356 61.0092C91.7344 61.0675 91.3893 61.0967 91.0021 61.0967ZM90.7812 56.1151C90.3964 56.1151 90.0878 56.237 89.8552 56.4805C89.6252 56.7242 89.4878 57.0792 89.4432 57.5458H92.0257C92.019 57.0758 91.9057 56.7207 91.6864 56.4805C91.4663 56.237 91.1651 56.1151 90.7812 56.1151ZM96.8812 61.0967C96.0206 61.0967 95.3661 60.8462 94.9168 60.3453C94.4708 59.841 94.2474 59.1188 94.2474 58.1788C94.2474 57.2216 94.4807 56.4857 94.9474 55.9711C95.4174 55.4564 96.0942 55.1992 96.9788 55.1992C97.5795 55.1992 98.119 55.3107 98.5998 55.5337L98.234 56.5063C97.7235 56.3073 97.3015 56.2078 96.9689 56.2078C95.985 56.2078 95.4927 56.8613 95.4927 58.1684C95.4927 58.8066 95.6143 59.2869 95.8576 59.6094C96.105 59.9285 96.4649 60.088 96.9383 60.088C97.4761 60.088 97.9858 59.9542 98.4657 59.6866V60.7415C98.2498 60.8685 98.0181 60.9594 97.7715 61.0143C97.5282 61.0692 97.2312 61.0967 96.8812 61.0967ZM104.808 60.9937H103.594V57.4944C103.594 57.0552 103.505 56.7276 103.327 56.5114C103.152 56.2953 102.873 56.1872 102.488 56.1872C101.981 56.1872 101.607 56.3399 101.367 56.6452C101.13 56.9471 101.012 57.4549 101.012 58.1684V60.9937H99.8029V52.9863H101.012V55.019C101.012 55.3449 100.991 55.6932 100.951 56.0637H101.028C101.192 55.7892 101.42 55.5766 101.712 55.4256C102.006 55.2747 102.35 55.1992 102.74 55.1992C104.119 55.1992 104.808 55.8939 104.808 57.2833V60.9937ZM111.496 60.9937H110.281V57.4944C110.281 57.0552 110.192 56.7276 110.014 56.5114C109.839 56.2953 109.559 56.1872 109.175 56.1872C108.664 56.1872 108.291 56.3381 108.054 56.6401C107.818 56.942 107.699 57.448 107.699 58.1582V60.9937H106.49V55.3021H107.437L107.607 56.0482H107.668C107.84 55.7772 108.083 55.568 108.399 55.4204C108.714 55.2729 109.064 55.1992 109.448 55.1992C110.813 55.1992 111.496 55.8939 111.496 57.2833V60.9937ZM118.224 58.1376C118.224 59.0674 117.985 59.793 117.509 60.3144C117.032 60.8359 116.369 61.0967 115.518 61.0967C114.987 61.0967 114.517 60.9766 114.109 60.7364C113.7 60.4963 113.386 60.1515 113.167 59.7021C112.948 59.2526 112.838 58.7311 112.838 58.1376C112.838 57.2147 113.074 56.4943 113.548 55.9762C114.021 55.4582 114.688 55.1992 115.549 55.1992C116.372 55.1992 117.023 55.4651 117.503 55.9968C117.984 56.5252 118.224 57.2387 118.224 58.1376ZM114.082 58.1376C114.082 59.4516 114.568 60.1086 115.539 60.1086C116.498 60.1086 116.978 59.4516 116.978 58.1376C116.978 56.8373 116.495 56.1872 115.528 56.1872C115.021 56.1872 114.652 56.3553 114.422 56.6915C114.196 57.0277 114.082 57.5098 114.082 58.1376ZM120.826 60.9937H119.617V52.9863H120.826V60.9937ZM127.606 58.1376C127.606 59.0674 127.368 59.793 126.891 60.3144C126.415 60.8359 125.751 61.0967 124.9 61.0967C124.369 61.0967 123.899 60.9766 123.491 60.7364C123.083 60.4963 122.769 60.1515 122.55 59.7021C122.33 59.2526 122.22 58.7311 122.22 58.1376C122.22 57.2147 122.457 56.4943 122.93 55.9762C123.404 55.4582 124.071 55.1992 124.931 55.1992C125.754 55.1992 126.406 55.4651 126.886 55.9968C127.366 56.5252 127.606 57.2387 127.606 58.1376ZM123.465 58.1376C123.465 59.4516 123.951 60.1086 124.921 60.1086C125.881 60.1086 126.361 59.4516 126.361 58.1376C126.361 56.8373 125.878 56.1872 124.91 56.1872C124.403 56.1872 124.034 56.3553 123.805 56.6915C123.578 57.0277 123.465 57.5098 123.465 58.1376ZM133.805 55.3021V55.966L132.832 56.146C132.922 56.2661 132.995 56.4136 133.053 56.5886C133.112 56.7636 133.141 56.9488 133.141 57.1444C133.141 57.731 132.938 58.1925 132.534 58.5287C132.129 58.8649 131.572 59.033 130.862 59.033C130.68 59.033 130.516 59.0193 130.368 58.9919C130.108 59.1531 129.978 59.3418 129.978 59.5579C129.978 59.6883 130.037 59.7861 130.157 59.8512C130.281 59.9165 130.506 59.9491 130.832 59.9491H131.824C132.452 59.9491 132.928 60.0828 133.254 60.3505C133.58 60.618 133.743 61.004 133.743 61.5083C133.743 62.1533 133.477 62.6507 132.946 63.0007C132.414 63.3506 131.646 63.5256 130.641 63.5256C129.866 63.5256 129.274 63.3884 128.866 63.1139C128.459 62.8395 128.254 62.4483 128.254 61.9406C128.254 61.5906 128.364 61.2956 128.583 61.0554C128.806 60.8188 129.116 60.654 129.514 60.5614C129.353 60.4928 129.22 60.383 129.113 60.2321C129.01 60.0777 128.959 59.9165 128.959 59.7483C128.959 59.5357 129.019 59.3555 129.139 59.208C129.259 59.0605 129.437 58.9146 129.674 58.7706C129.379 58.6436 129.139 58.4378 128.954 58.153C128.772 57.8649 128.681 57.5286 128.681 57.1444C128.681 56.5269 128.875 56.0482 129.263 55.7086C129.653 55.3689 130.209 55.1992 130.929 55.1992C131.09 55.1992 131.259 55.2112 131.433 55.2352C131.611 55.2558 131.745 55.278 131.835 55.3021H133.805ZM129.335 61.8789C129.335 62.1396 129.451 62.3403 129.684 62.4809C129.921 62.6216 130.252 62.692 130.677 62.692C131.336 62.692 131.825 62.5976 132.148 62.4089C132.471 62.2202 132.631 61.9698 132.631 61.6576C132.631 61.4106 132.543 61.2338 132.364 61.1276C132.19 61.0246 131.862 60.9732 131.382 60.9732H130.466C130.12 60.9732 129.844 61.0537 129.638 61.215C129.436 61.3797 129.335 61.601 129.335 61.8789ZM129.854 57.1444C129.854 57.5012 129.945 57.7756 130.127 57.9678C130.312 58.1599 130.576 58.2559 130.919 58.2559C131.619 58.2559 131.968 57.882 131.968 57.1341C131.968 56.7636 131.881 56.4788 131.705 56.2799C131.534 56.0774 131.272 55.9762 130.919 55.9762C130.569 55.9762 130.303 56.0757 130.122 56.2747C129.943 56.4737 129.854 56.7636 129.854 57.1444ZM136.073 60.9937H134.864V55.3021H136.073V60.9937ZM134.792 53.7943C134.792 53.5781 134.851 53.4117 134.967 53.2951C135.087 53.1785 135.257 53.1201 135.476 53.1201C135.689 53.1201 135.853 53.1785 135.97 53.2951C136.09 53.4117 136.15 53.5781 136.15 53.7943C136.15 54.0001 136.09 54.1631 135.97 54.2831C135.853 54.3997 135.689 54.4581 135.476 54.4581C135.257 54.4581 135.087 54.3997 134.967 54.2831C134.851 54.1631 134.792 54.0001 134.792 53.7943ZM140.291 61.0967C139.407 61.0967 138.713 60.8393 138.213 60.3247C137.715 59.8067 137.467 59.0948 137.467 58.1891C137.467 57.2593 137.699 56.5285 138.161 55.9968C138.625 55.4651 139.26 55.1992 140.069 55.1992C140.821 55.1992 141.414 55.4273 141.849 55.8836C142.285 56.3399 142.503 56.9677 142.503 57.767V58.4206H138.712C138.729 58.973 138.878 59.3984 139.159 59.6968C139.441 59.992 139.837 60.1395 140.347 60.1395C140.683 60.1395 140.995 60.1086 141.284 60.0468C141.575 59.9816 141.887 59.8753 142.22 59.7277V60.7107C141.925 60.8513 141.627 60.9508 141.325 61.0092C141.023 61.0675 140.678 61.0967 140.291 61.0967ZM140.069 56.1151C139.685 56.1151 139.377 56.237 139.143 56.4805C138.914 56.7242 138.777 57.0792 138.732 57.5458H141.315C141.308 57.0758 141.195 56.7207 140.975 56.4805C140.755 56.237 140.454 56.1151 140.069 56.1151ZM147.699 59.3727C147.699 59.9285 147.496 60.3556 147.091 60.654C146.687 60.9491 146.107 61.0967 145.353 61.0967C144.595 61.0967 143.986 60.9817 143.526 60.7518V59.7072C144.195 60.016 144.817 60.1703 145.394 60.1703C146.138 60.1703 146.51 59.9456 146.51 59.4962C146.51 59.3521 146.469 59.232 146.386 59.1359C146.304 59.0399 146.169 58.9404 145.98 58.8375C145.791 58.7346 145.529 58.6179 145.193 58.4876C144.538 58.2337 144.094 57.9798 143.861 57.7259C143.631 57.472 143.517 57.1427 143.517 56.7378C143.517 56.2506 143.712 55.8733 144.102 55.6057C144.497 55.3347 145.032 55.1992 145.708 55.1992C146.376 55.1992 147.009 55.3347 147.606 55.6057L147.214 56.5165C146.6 56.2626 146.085 56.1357 145.666 56.1357C145.028 56.1357 144.71 56.3175 144.71 56.6813C144.71 56.8597 144.792 57.0106 144.956 57.1341C145.124 57.2576 145.488 57.4275 146.047 57.6435C146.517 57.8254 146.858 57.9918 147.07 58.1428C147.283 58.2937 147.441 58.4687 147.544 58.6676C147.646 58.8632 147.699 59.0982 147.699 59.3727ZM151.875 60.9937V53.47H153.104V59.9387H156.288V60.9937H151.875ZM158.665 60.9937H157.456V55.3021H158.665V60.9937ZM157.384 53.7943C157.384 53.5781 157.443 53.4117 157.559 53.2951C157.679 53.1785 157.849 53.1201 158.068 53.1201C158.281 53.1201 158.445 53.1785 158.562 53.2951C158.682 53.4117 158.743 53.5781 158.743 53.7943C158.743 54.0001 158.682 54.1631 158.562 54.2831C158.445 54.3997 158.281 54.4581 158.068 54.4581C157.849 54.4581 157.679 54.3997 157.559 54.2831C157.443 54.1631 157.384 54.0001 157.384 53.7943ZM165.193 60.9937H163.979V57.484C163.979 57.0483 163.897 56.7242 163.732 56.5114C163.567 56.2953 163.31 56.1872 162.96 56.1872C162.493 56.1872 162.151 56.3399 161.932 56.6452C161.716 56.9471 161.607 57.4515 161.607 58.1582V60.9937H160.398V55.3021H161.345L161.515 56.0482H161.577C161.735 55.7772 161.962 55.568 162.261 55.4204C162.562 55.2729 162.893 55.1992 163.253 55.1992C164.128 55.1992 164.708 55.4976 164.992 56.0946H165.074C165.242 55.8132 165.479 55.5937 165.784 55.4358C166.09 55.278 166.44 55.1992 166.833 55.1992C167.513 55.1992 168.007 55.3707 168.315 55.7137C168.627 56.0569 168.783 56.58 168.783 57.2833V60.9937H167.574V57.484C167.574 57.0483 167.49 56.7242 167.322 56.5114C167.158 56.2953 166.9 56.1872 166.55 56.1872C166.08 56.1872 165.736 56.3348 165.517 56.6298C165.301 56.9214 165.193 57.3708 165.193 57.978V60.9937ZM171.679 60.9937H170.47V55.3021H171.679V60.9937ZM170.398 53.7943C170.398 53.5781 170.457 53.4117 170.574 53.2951C170.693 53.1785 170.863 53.1201 171.082 53.1201C171.295 53.1201 171.46 53.1785 171.576 53.2951C171.696 53.4117 171.756 53.5781 171.756 53.7943C171.756 54.0001 171.696 54.1631 171.576 54.2831C171.46 54.3997 171.295 54.4581 171.082 54.4581C170.863 54.4581 170.693 54.3997 170.574 54.2831C170.457 54.1631 170.398 54.0001 170.398 53.7943ZM175.532 60.1189C175.827 60.1189 176.122 60.0726 176.417 59.98V60.8908C176.283 60.9491 176.11 60.9972 175.897 61.0349C175.688 61.0761 175.47 61.0967 175.244 61.0967C174.098 61.0967 173.526 60.4928 173.526 59.2852V56.2181H172.749V55.6828L173.582 55.2403L173.994 54.0361H174.74V55.3021H176.36V56.2181H174.74V59.2646C174.74 59.5562 174.812 59.7723 174.956 59.913C175.103 60.0502 175.295 60.1189 175.532 60.1189ZM180.043 61.0967C179.158 61.0967 178.466 60.8393 177.965 60.3247C177.468 59.8067 177.219 59.0948 177.219 58.1891C177.219 57.2593 177.45 56.5285 177.914 55.9968C178.376 55.4651 179.013 55.1992 179.822 55.1992C180.573 55.1992 181.167 55.4273 181.602 55.8836C182.037 56.3399 182.255 56.9677 182.255 57.767V58.4206H178.464C178.481 58.973 178.63 59.3984 178.912 59.6968C179.192 59.992 179.589 60.1395 180.1 60.1395C180.436 60.1395 180.748 60.1086 181.036 60.0468C181.327 59.9816 181.639 59.8753 181.972 59.7277V60.7107C181.677 60.8513 181.379 60.9508 181.077 61.0092C180.775 61.0675 180.431 61.0967 180.043 61.0967ZM179.822 56.1151C179.438 56.1151 179.129 56.237 178.896 56.4805C178.666 56.7242 178.529 57.0792 178.485 57.5458H181.066C181.06 57.0758 180.946 56.7207 180.727 56.4805C180.508 56.237 180.206 56.1151 179.822 56.1151ZM185.547 61.0967C184.837 61.0967 184.284 60.8393 183.886 60.3247C183.488 59.8101 183.289 59.0879 183.289 58.1582C183.289 57.225 183.489 56.4994 183.891 55.9814C184.295 55.4599 184.855 55.1992 185.568 55.1992C186.315 55.1992 186.884 55.4753 187.276 56.0277H187.337C187.279 55.6194 187.25 55.2969 187.25 55.0602V52.9863H188.464V60.9937H187.517L187.306 60.2475H187.25C186.862 60.8136 186.294 61.0967 185.547 61.0967ZM185.872 60.1189C186.369 60.1189 186.73 59.98 186.956 59.7021C187.183 59.4207 187.3 58.9661 187.306 58.3383V58.1684C187.306 57.4515 187.19 56.942 186.956 56.6401C186.724 56.3381 186.358 56.1872 185.861 56.1872C185.435 56.1872 185.109 56.3605 184.879 56.7069C184.649 57.0501 184.534 57.5406 184.534 58.1788C184.534 58.81 184.645 59.292 184.868 59.6248C185.091 59.9542 185.426 60.1189 185.872 60.1189Z" fill="#5BCAED"/>
</g>
<defs>
<linearGradient id="paint0_linear_21_29209" x1="0.0736932" y1="37.4901" x2="25.1006" y2="37.4901" gradientUnits="userSpaceOnUse">
<stop stop-color="#00B0F0"/>
<stop offset="0.68295" stop-color="#113381"/>
<stop offset="0.891892" stop-color="#113381"/>
<stop offset="1" stop-color="#29586E"/>
</linearGradient>
<linearGradient id="paint1_linear_21_29209" x1="14.4037" y1="69.1467" x2="55.7095" y2="27.8493" gradientUnits="userSpaceOnUse">
<stop stop-color="#00B0F0"/>
<stop offset="0.102703" stop-color="#00B0F0"/>
<stop offset="0.603533" stop-color="#113381"/>
<stop offset="0.756757" stop-color="#113381"/>
<stop offset="1" stop-color="#113381"/>
</linearGradient>
<linearGradient id="paint2_linear_21_29209" x1="20.166" y1="50.6886" x2="41.2825" y2="29.5763" gradientUnits="userSpaceOnUse">
<stop stop-color="#00B0F0"/>
<stop offset="0.102703" stop-color="#00B0F0"/>
<stop offset="0.603533" stop-color="#113381"/>
<stop offset="0.756757" stop-color="#113381"/>
<stop offset="1" stop-color="#113381"/>
</linearGradient>
<linearGradient id="paint3_linear_21_29209" x1="21.1917" y1="66.203" x2="51.0079" y2="36.3928" gradientUnits="userSpaceOnUse">
<stop stop-color="#00B0F0"/>
<stop offset="0.102703" stop-color="#00B0F0"/>
<stop offset="0.603533" stop-color="#113381"/>
<stop offset="0.756757" stop-color="#113381"/>
<stop offset="1" stop-color="#113381"/>
</linearGradient>
</defs>
</svg>
